<?xml version="1.0" standalone="no"?><svg xmlns="http://www.w3.org/2000/svg" viewBox="0 0 1440 320"><path fill="#ffffff" fill-opacity="1" d="M0,160L12.6,149.3C25.3,139,51,117,76,122.7C101.1,128,126,160,152,192C176.8,224,202,256,227,272C252.6,288,278,288,303,282.7C328.4,277,354,267,379,266.7C404.2,267,429,277,455,266.7C480,256,505,224,531,213.3C555.8,203,581,213,606,208C631.6,203,657,181,682,192C707.4,203,733,245,758,261.3C783.2,277,808,267,834,250.7C858.9,235,884,213,909,224C934.7,235,960,277,985,272C1010.5,267,1036,213,1061,208C1086.3,203,1112,245,1137,256C1162.1,267,1187,245,1213,245.3C1237.9,245,1263,267,1288,266.7C1313.7,267,1339,245,1364,224C1389.5,203,1415,181,1427,170.7L1440,160L1440,320L1427.4,320C1414.7,320,1389,320,1364,320C1338.9,320,1314,320,1288,320C1263.2,320,1238,320,1213,320C1187.4,320,1162,320,1137,320C1111.6,320,1086,320,1061,320C1035.8,320,1011,320,985,320C960,320,935,320,909,320C884.2,320,859,320,834,320C808.4,320,783,320,758,320C732.6,320,707,320,682,320C656.8,320,632,320,606,320C581.1,320,556,320,531,320C505.3,320,480,320,455,320C429.5,320,404,320,379,320C353.7,320,328,320,303,320C277.9,320,253,320,227,320C202.1,320,177,320,152,320C126.3,320,101,320,76,320C50.5,320,25,320,13,320L0,320Z"></path></svg>